<svg xmlns="http://www.w3.org/2000/svg" viewBox="0 0 1362 205">
  <style>
    .st0{fill:#263238}


@keyframes pulse {
  0% {
    transform: scale(0.95);
  }
  
  70% {
    transform: scale(1);
  }
  
  100% {
    transform: scale(0.95);
  }
}

switch{
       animation: pulse 2s infinite;
       transform-origin: center;

}
  </style>
  <switch>
    <g>
      <g id="c1">
        <path class="st0" d="M7.3 14.8c-.5 0-1-.2-1.3-.6-.3-.4-.6-.9-.6-1.4s.2-1 .6-1.4c.7-.7 1.9-.7 2.6 0 .4.4.6.9.6 1.4s-.2 1-.6 1.4c-.4.4-.8.6-1.3.6zM8.9 28.7c-.2-1.1.4-2.1 1.4-2.4 1-.2 2 .4 2.2 1.4.2 1.1-.4 2.1-1.4 2.4h-.4c-.8.1-1.6-.5-1.8-1.4zm-6.7-1.4c-.7-.8-.7-2 .1-2.8.7-.7 1.9-.7 2.6.1.7.8.7 2-.1 2.8-.4.4-.8.5-1.3.5-.4 0-.9-.2-1.3-.6zm13.4-2.6c-1-.3-1.5-1.4-1.2-2.4.3-1 1.3-1.6 2.3-1.3 1 .3 1.5 1.4 1.2 2.4-.2.8-1 1.4-1.8 1.4-.1 0-.3 0-.5-.1zM1.3 20.2c-1-.3-1.6-1.4-1.3-2.4.3-1 1.3-1.6 2.3-1.3 1 .3 1.6 1.4 1.3 2.4-.2.9-1 1.4-1.8 1.4-.1 0-.3 0-.5-.1zm11.9-3.6c-.7-.8-.7-2 .1-2.8.7-.8 1.9-.7 2.6 0 .7.8.7 2-.1 2.8-.4.4-.8.5-1.3.5s-1-.1-1.3-.5z"/>
        <path class="st0" d="M7.3 14.8c-.5 0-1-.2-1.3-.6-.1-.1-.2-.2-.2-.3-.1-.1-.1-.2-.2-.3 0-.1-.1-.2-.1-.4v-.4c0-.5.2-1 .6-1.4.4-.5 1.1-.7 1.7-.5 0 .1.1.1.3.1.1.1.2.1.3.2.1.1.2.1.3.2.1.1.2.2.2.3.1.2.1.3.2.4.1.1.1.2.1.4v.8c0 .1-.1.2-.1.4-.1 0-.1.1-.2.3-.1.1-.1.2-.2.3-.1.1-.2.2-.3.2-.1.1-.2.1-.3.2-.1 0-.2.1-.4.1h-.4z"/>
      </g>
      <g id="c2">
        <path class="st0" d="M88.5 152.5c-.9 0-1.7-.4-2.3-1-.6-.6-.9-1.5-.9-2.4 0-.9.4-1.8.9-2.4 1.2-1.2 3.3-1.2 4.5 0 .6.6.9 1.5.9 2.4 0 .9-.3 1.8-.9 2.4-.6.7-1.4 1-2.2 1zM91.3 176.2c-.4-1.8.6-3.6 2.4-4 1.7-.4 3.4.7 3.8 2.5.4 1.8-.7 3.6-2.4 4-.2 0-.5.1-.7.1-1.4 0-2.7-1-3.1-2.6zm-11.4-2.3c-1.2-1.3-1.2-3.5.1-4.8 1.3-1.3 3.3-1.2 4.5.1 1.2 1.3 1.2 3.5-.1 4.8-.6.6-1.4.9-2.2.9-.9.1-1.7-.3-2.3-1zm22.9-4.5c-1.7-.6-2.6-2.4-2.1-4.2.5-1.8 2.3-2.8 4-2.2 1.7.6 2.6 2.4 2.1 4.2-.4 1.4-1.7 2.4-3 2.4-.4 0-.7-.1-1-.2zm-24.5-7.7c-1.7-.5-2.7-2.4-2.1-4.2.5-1.8 2.2-2.8 3.9-2.3 1.7.5 2.7 2.4 2.2 4.2-.4 1.5-1.7 2.4-3.1 2.4-.3.1-.6 0-.9-.1zm20.3-6.2c-1.2-1.3-1.2-3.5.1-4.8 1.3-1.3 3.3-1.2 4.5.1 1.2 1.3 1.2 3.5-.1 4.8-.6.6-1.4.9-2.2.9-.9 0-1.7-.3-2.3-1z"/>
        <path class="st0" d="M88.6 152.5c-.8 0-1.7-.4-2.2-1-.1-.1-.3-.3-.4-.5l-.3-.6c-.1-.2-.1-.4-.2-.6-.1-.2-.1-.4-.1-.7 0-.9.3-1.7.9-2.4.7-.8 1.8-1.1 2.9-.9.2.1.4.1.6.2l.6.3c.2.1.3.2.5.4s.3.3.4.5l.3.6c.1.2.1.4.2.6V149.7c-.1.2-.1.4-.2.6l-.3.6c-.1.2-.2.4-.4.5-.1.1-.3.3-.5.4l-.6.3c-.2.1-.4.1-.6.2-.2.2-.4.2-.6.2z"/>
      </g>
      <g id="p1">
        <path class="st0" d="M205.8 33.8c-.2 0-.3.1-.5.1-.8 0-1.6-.6-1.8-1.4 0-.2-.1-.3-.1-.5l-.1-8.2c0-1.1.8-1.9 1.8-1.9.8 0 1.6.6 1.8 1.4 0 .2.1.3.1.5l.1 8.2c.1.8-.5 1.6-1.3 1.8z"/>
        <path class="st0" d="M210.2 29.6c-.2 0-.3.1-.5.1l-8.9.1c-.8 0-1.6-.6-1.8-1.4 0-.2-.1-.3-.1-.5 0-1.1.8-1.9 1.8-1.9l8.9-.1c.8 0 1.6.6 1.8 1.4 0 .2.1.3.1.5.1.9-.5 1.6-1.3 1.8z"/>
        <path class="st0" d="M205.8 33.8c-.2 0-.3.1-.5.1-.8 0-1.6-.6-1.8-1.4 0-.2-.1-.3-.1-.5l-.1-8.2c0-1.1.8-1.9 1.8-1.9.8 0 1.6.6 1.8 1.4 0 .2.1.3.1.5l.1 8.2c.1.8-.5 1.6-1.3 1.8z"/>
        <path class="st0" d="M210.2 29.6c-.2 0-.3.1-.5.1l-8.9.1c-.8 0-1.6-.6-1.8-1.4 0-.2-.1-.3-.1-.5 0-1.1.8-1.9 1.8-1.9l8.9-.1c.8 0 1.6.6 1.8 1.4 0 .2.1.3.1.5.1.9-.5 1.6-1.3 1.8z"/>
      </g>
      <g id="p2">
        <path class="st0" d="M358.4 204.2c-2.9 0-5.2-2.5-5.2-5.5v-22.2c0-3 2.3-5.5 5.2-5.5 2.9 0 5.2 2.5 5.2 5.5v22.2c0 3-2.4 5.5-5.2 5.5z"/>
        <path class="st0" d="M370.5 193.1h-24.3c-2.9 0-5.2-2.5-5.2-5.5s2.3-5.5 5.2-5.5h24.3c2.9 0 5.2 2.5 5.2 5.5s-2.3 5.5-5.2 5.5z"/>
      </g>
      <g id="c3">
        <path class="st0" d="M621.5 12.6c-.9 0-1.7-.4-2.3-1-.6-.6-.9-1.5-.9-2.4 0-.9.4-1.8.9-2.4 1.2-1.2 3.3-1.2 4.5 0 .6.6.9 1.5.9 2.4 0 .9-.3 1.8-.9 2.4-.6.7-1.4 1-2.2 1zM624.3 36.3c-.4-1.8.6-3.6 2.4-4 1.7-.4 3.4.7 3.8 2.5.4 1.8-.7 3.6-2.4 4-.2 0-.5.1-.7.1-1.4 0-2.7-1.1-3.1-2.6zM612.9 34c-1.2-1.3-1.2-3.5.1-4.8 1.3-1.3 3.3-1.2 4.5.1 1.2 1.3 1.2 3.5-.1 4.8-.6.6-1.4.9-2.2.9-.9 0-1.7-.3-2.3-1zm22.9-4.5c-1.7-.6-2.6-2.4-2.1-4.2.5-1.8 2.3-2.7 4-2.2 1.7.6 2.6 2.4 2.1 4.2-.4 1.4-1.7 2.4-3 2.4-.4-.1-.7-.1-1-.2zm-24.5-7.7c-1.7-.5-2.7-2.4-2.1-4.2.5-1.8 2.2-2.8 3.9-2.3 1.7.5 2.7 2.4 2.2 4.2-.4 1.5-1.7 2.4-3.1 2.4-.3 0-.6 0-.9-.1zm20.3-6.2c-1.2-1.3-1.2-3.5.1-4.8 1.3-1.3 3.3-1.2 4.5.1 1.2 1.3 1.2 3.5-.1 4.8-.6.6-1.4.9-2.2.9-.9 0-1.7-.4-2.3-1z"/>
        <path class="st0" d="M621.6 12.6c-.8 0-1.7-.4-2.2-1-.1-.1-.3-.3-.4-.5l-.3-.6c-.1-.2-.1-.4-.2-.6-.1-.2-.1-.4-.1-.7 0-.9.3-1.7.9-2.4.7-.8 1.8-1.1 2.9-.9.2.1.4.1.6.2.2.1.4.2.5.3.2.1.3.2.5.4s.3.3.4.5l.3.6c.1.2.1.4.2.6V9.8c-.1.2-.1.4-.2.6l-.3.6c-.1.2-.2.4-.4.5-.1.1-.3.3-.5.4-.2.1-.4.2-.5.3-.2.1-.4.1-.6.2-.2.2-.4.2-.6.2z"/>
      </g>
      <g id="p3">
        <path class="st0" d="M893.8 15.3c-.2 0-.3.1-.5.1-.8 0-1.6-.6-1.8-1.4 0-.2-.1-.3-.1-.5l-.1-8c0-1 .8-1.9 1.8-1.9.8 0 1.6.6 1.8 1.4 0 .2.1.3.1.5l.1 8c0 .8-.5 1.6-1.3 1.8z"/>
        <path class="st0" d="M898.2 11.2c-.2 0-.3.1-.5.1l-8.9.1c-.8 0-1.6-.6-1.8-1.4 0-.2-.1-.3-.1-.5 0-1 .8-1.9 1.8-1.9l8.9-.1c.8 0 1.6.6 1.8 1.4 0 .2.1.3.1.5.1.9-.5 1.6-1.3 1.8z"/>
        <path class="st0" d="M893.8 15.3c-.2 0-.3.1-.5.1-.8 0-1.6-.6-1.8-1.4 0-.2-.1-.3-.1-.5l-.1-8c0-1 .8-1.9 1.8-1.9.8 0 1.6.6 1.8 1.4 0 .2.1.3.1.5l.1 8c0 .8-.5 1.6-1.3 1.8z"/>
        <path class="st0" d="M898.2 11.2c-.2 0-.3.1-.5.1l-8.9.1c-.8 0-1.6-.6-1.8-1.4 0-.2-.1-.3-.1-.5 0-1 .8-1.9 1.8-1.9l8.9-.1c.8 0 1.6.6 1.8 1.4 0 .2.1.3.1.5.1.9-.5 1.6-1.3 1.8z"/>
      </g>
      <g id="p4">
        <path class="st0" d="M1122.8 94.6c-.1 0-.3.1-.5.1-.8 0-1.6-.6-1.8-1.4 0-.2-.1-.3-.1-.5l-.1-8c0-1 .8-1.9 1.8-1.9.8 0 1.6.6 1.8 1.4 0 .2.1.3.1.5l.1 8c.1.8-.5 1.5-1.3 1.8z"/>
        <path class="st0" d="M1127.2 90.5c-.2 0-.3.1-.5.1l-8.9.1c-.8 0-1.5-.6-1.8-1.4 0-.2-.1-.3-.1-.5 0-1 .8-1.9 1.8-1.9l8.9-.1c.8 0 1.6.6 1.8 1.4 0 .2.1.3.1.5.1.8-.5 1.6-1.3 1.8z"/>
        <path class="st0" d="M1122.8 94.6c-.1 0-.3.1-.5.1-.8 0-1.6-.6-1.8-1.4 0-.2-.1-.3-.1-.5l-.1-8c0-1 .8-1.9 1.8-1.9.8 0 1.6.6 1.8 1.4 0 .2.1.3.1.5l.1 8c.1.8-.5 1.5-1.3 1.8z"/>
        <path class="st0" d="M1127.2 90.5c-.2 0-.3.1-.5.1l-8.9.1c-.8 0-1.5-.6-1.8-1.4 0-.2-.1-.3-.1-.5 0-1 .8-1.9 1.8-1.9l8.9-.1c.8 0 1.6.6 1.8 1.4 0 .2.1.3.1.5.1.8-.5 1.6-1.3 1.8z"/>
      </g>
      <g id="p5">
        <path class="st0" d="M1269.4 197.6c-2.9 0-5.2-2.4-5.2-5.4v-21.7c0-3 2.3-5.4 5.2-5.4s5.2 2.4 5.2 5.4v21.7c0 3-2.4 5.4-5.2 5.4z"/>
        <path class="st0" d="M1281.5 186.7h-24.3c-2.9 0-5.2-2.4-5.2-5.4s2.3-5.4 5.2-5.4h24.3c2.9 0 5.2 2.4 5.2 5.4s-2.3 5.4-5.2 5.4z"/>
      </g>
      <g id="c4">
        <path class="st0" d="M1350.7 4.7c-.5 0-1-.2-1.4-.6-.3-.4-.6-.9-.6-1.4 0-.5.2-1.1.6-1.4.7-.7 2-.7 2.8 0 .4.4.6.9.6 1.4 0 .5-.2 1.1-.6 1.4-.4.4-.9.6-1.4.6zM1352.4 19c-.3-1.1.4-2.2 1.4-2.4 1.1-.3 2.1.4 2.4 1.5.2 1.1-.4 2.2-1.4 2.4h-.5c-.9 0-1.7-.6-1.9-1.5zm-7-1.4c-.8-.8-.7-2.1.1-2.9.8-.8 2-.7 2.8.1.8.8.7 2.1-.1 2.9-.4.4-.9.6-1.3.6-.7-.1-1.1-.3-1.5-.7zm14.1-2.7c-1-.3-1.6-1.5-1.3-2.5.3-1.1 1.4-1.7 2.5-1.3 1 .3 1.6 1.5 1.3 2.5-.3.9-1 1.4-1.9 1.4-.3 0-.4-.1-.6-.1zm-15.1-4.6c-1-.3-1.6-1.4-1.3-2.5.3-1.1 1.4-1.7 2.4-1.4 1 .3 1.6 1.4 1.3 2.5-.3.9-1 1.5-1.9 1.5-.1-.1-.3-.1-.5-.1zm12.5-3.8c-.7-.8-.7-2.1.1-2.9.8-.8 2-.7 2.8 0 .8.8.7 2.1-.1 2.9-.4.4-.9.6-1.4.6-.5 0-1.1-.2-1.4-.6z"/>
        <path class="st0" d="M1350.7 4.7c-.5 0-1-.2-1.4-.6-.1-.1-.2-.2-.2-.3-.1-.1-.1-.2-.2-.3 0-.1-.1-.2-.1-.4v-.4c0-.5.2-1 .6-1.4.5-.5 1.1-.7 1.8-.5.1 0 .2.1.4.1.1.1.2.1.3.2.1.1.2.1.3.2.1.1.2.2.2.3.1.1.1.2.2.3.1.1.1.2.1.4v.8c0 .1-.1.3-.1.4-.1.1-.1.2-.2.3-.1.1-.1.2-.2.3-.1.1-.2.2-.3.2-.1.1-.2.1-.3.2s-.2.1-.4.1c-.2.1-.4.1-.5.1z"/>
      </g>
    </g>
  </switch>
</svg>
