<svg version="1.1" id="Layer_1" xmlns="http://www.w3.org/2000/svg" x="0" y="0" viewBox="0 0 218 175" xml:space="preserve">
  <style>
    .st2{fill:#fff}.st10,.st11{fill:none;stroke:#263238;stroke-width:1.664;stroke-linecap:round;stroke-linejoin:round;stroke-miterlimit:10}.st11{stroke-width:3}
  </style>
  <switch>
    <g>
      <path d="M145.6 156.1c39.6 0 71.6-32 71.6-71.5s-32.1-71.5-71.6-71.5C106.1 13 74 45 74 84.5c0 39.5 32.1 71.6 71.6 71.6z" fill="#ff5f90"/>
      <path d="M140.7 162.9h-.4c-2.4-.1-4.3-2.3-4.3-4.8v-.4c.1-2.6 2.3-4.4 4.6-4.6h.4c2.4.1 4.3 2.3 4.3 4.8v.4c-.2 2.7-2.3 4.6-4.6 4.6zm48.3-9.6l-95.3-7.5c-.4 0-.6-.4-.6-.7l10.7-130.4c0-.4.3-.7.7-.7l95.2 7.5c.1 0 .3.1.4.3.1.1.1.3.1.6l-10.7 130.4c0 .1-.1.4-.3.4.1.1 0 .1-.2.1zM104.9 1.4c-3.4 0-6.4 2.8-6.7 6.5l-12 147.2v.7c0 3.6 2.7 6.7 6.3 7l94 7.4h.6c3.4 0 6.4-2.8 6.7-6.5l12-147V16c0-3.6-2.7-6.7-6.3-7l-94-7.5c-.1-.1-.3-.1-.6-.1z" fill="#e5e3e4"/>
      <path d="M104.9 0c-4.1.1-7.7 3.4-8 7.8l-12 147v.9c0 4.3 3.3 8 7.4 8.4l94 7.5v-1.4l-94-7.4c-3.6-.3-6.1-3.4-6.3-7v-.7L98.1 8c.3-3.7 3.3-6.5 6.7-6.5h.6l94 7.5c3.6.3 6.1 3.3 6.3 7v.7l-12 147c-.3 3.7-3.3 6.5-6.7 6.5h-.6v1.4h.7c4.1-.1 7.7-3.4 8-7.8l12.1-147.2v-.9c0-4.3-3.3-8-7.4-8.4l-94-7.4c-.3.1-.6.1-.9.1z"/>
      <path class="st2" d="M104.9 15.5L94.5 144.4l93.9 7.4 10.4-128.9-93.9-7.4z"/>
      <path d="M188.5 151.8l-93.9-7.4 10.5-128.9 93.9 7.4-10.5 128.9zM104.4 13.9c-.3 0-.7.3-.7.7L93 145c0 .4.3.7.6.7l95.2 7.5c.1 0 .3 0 .4-.1.1-.1.3-.3.3-.4l10.7-130.4c0-.1 0-.4-.1-.6-.1-.1-.3-.3-.4-.3l-95.3-7.5z"/>
      <path class="st2" d="M140.6 154.6c-1.7 0-3.1 1.4-3.3 3.3v.3c0 1.7 1.3 3.3 3 3.4h.3c1.7 0 3.1-1.4 3.3-3.3v-.3c0-1.7-1.3-3.3-3-3.4h-.3z"/>
      <path d="M140.7 161.5h-.3c-1.7-.1-3-1.6-3-3.4v-.3c.1-1.9 1.6-3.1 3.3-3.3h.3c1.7.1 3 1.7 3 3.4v.3c-.1 1.9-1.7 3.3-3.3 3.3zm-.1-8.4c-2.4 0-4.4 2-4.6 4.6v.4c0 2.6 1.9 4.6 4.3 4.8h.4c2.4 0 4.4-2 4.6-4.6v-.4c0-2.6-1.9-4.6-4.3-4.8h-.4z"/>
      <circle cx="153.8" cy="12.5" r="1.6" stroke="#fff" stroke-width=".455" stroke-miterlimit="10"/>
      <path d="M187.8 30.3l-73.7-6-8.8 109.5 73.7 6 8.8-109.5z" fill="#fff" stroke="#263238" stroke-width="1.664" stroke-miterlimit="10"/>
      <path d="M176.6 40.5l-53.2-4.3-2.8 35 53.2 4.3 2.8-35z" fill="none" stroke="#000" stroke-width=".832" stroke-linecap="round" stroke-linejoin="round" stroke-miterlimit="10"/>
      <path d="M130.8 62.2l34.4 2.8c.1 0 .3-.1.3-.4l-8.9-14.3c-.4-.8-1.5-.8-2.2-.1l-7.1 8.7c-.6.7-1.8.6-2.2-.1l-3.1-5.5c-.4-.8-1.5-1-2.1-.3l-9.1 9c-.2-.1-.1.2 0 .2z" fill="#f7a730"/>
      <path d="M179.6 116.1l-23.6-2-1.8 22.5" fill="#f6ab4d"/>
      <path d="M179.6 116.1l-23.6-2-1.8 22.5" fill="none" stroke="#263238" stroke-width="1.664" stroke-miterlimit="10"/>
      <path d="M179.6 116.1l-25.4 20.5" fill="none" stroke="#263238" stroke-width=".832" stroke-miterlimit="10"/>
      <path class="st10" d="M168.2 93.1c-15-1.3-29.8-2.4-44.7-3.7M167.3 102.2c-15-1.3-29.8-2.4-44.7-3.7M166.6 111.4c-15-1.3-29.8-2.4-44.7-3.7"/>
      <path class="st11" d="M49.2 116H17.7M49.2 133.5H2M60.3 150.7H13.1"/>
    </g>
  </switch>
</svg>
