<svg version="1.1" id="Layer_1" xmlns="http://www.w3.org/2000/svg" x="0" y="0" viewBox="0 0 123.4 110" xml:space="preserve">
  <style>
    .st1{fill:#e2e2e2}.st2{fill:#263238}.st4{fill:#fff}.st5{fill:none;stroke:#000;stroke-width:2;stroke-linecap:round;stroke-linejoin:round;stroke-miterlimit:10}
  </style>
  <switch>
    <g>
      <path class="st1" d="M55 106.3c-.1 0-.3-.1-.4-.2-.1-.2-.1-.4 0-.6l6-7.3c-8-5.6-12.7-14.7-12.7-24.4 0-16.6 13.5-30 30-30s30 13.4 30 29.8c0 16.6-13.5 30-30 30-4.4 0-8.7-.9-12.2-2.7l-10.4 5.3c-.1.1-.2.1-.3.1z"/>
      <path class="st1" d="M77.9 44.3c16.3 0 29.5 13.2 29.5 29.3 0 16.3-13.2 29.5-29.5 29.5-4.3 0-8.6-.9-12.2-2.7L55 105.8l6.4-7.7c-7.8-5.2-13-14.1-13-24.3 0-16.4 13.2-29.5 29.5-29.5m0-1c-16.8 0-30.5 13.7-30.5 30.5 0 9.7 4.6 18.8 12.5 24.5l-5.7 6.9c-.3.4-.3.9 0 1.3.2.2.5.4.8.4.2 0 .3 0 .5-.1l10.2-5.2c3.6 1.7 7.8 2.6 12.2 2.6 16.8 0 30.5-13.7 30.5-30.5S94.7 43.3 77.9 43.3zM40 46.7c-.1 0-.2 0-.2-.1l-7.4-3.8c-2.6 1.2-5.6 1.9-8.7 1.9-11.9 0-21.6-9.7-21.6-21.6 0-11.8 9.7-21.4 21.6-21.4s21.6 9.7 21.6 21.6c0 6.9-3.4 13.4-9 17.5l4.2 5.1c.2.2.2.4 0 .6-.2.1-.3.2-.5.2z"/>
      <path class="st1" d="M23.7 2.2c11.7 0 21.1 9.4 21.1 21.1 0 7.3-3.7 13.6-9.2 17.4l4.5 5.5-7.6-3.9c-2.6 1.3-5.7 1.9-8.7 1.9-11.8 0-21.2-9.4-21.2-21.1C2.6 11.6 12 2.2 23.7 2.2m0-1C11.5 1.2 1.6 11 1.6 23.1c0 12.2 9.9 22.1 22.1 22.1 3.1 0 6.2-.6 8.7-1.8l7.2 3.7c.1.1.3.1.5.1.3 0 .6-.1.8-.4.3-.4.3-.9 0-1.3L37 40.9c5.5-4.2 8.8-10.6 8.8-17.6-.1-12.2-10-22.1-22.1-22.1z"/>
      <path class="st2" d="M102.9 44.3c-.3 0-.6-.1-.9-.4-.5-.5-.5-1.3 0-1.8l10-10c.5-.5 1.3-.5 1.8 0s.5 1.3 0 1.8l-10 10c-.3.3-.6.4-.9.4zM95.4 39.3c-.7 0-1.3-.6-1.2-1.3l.7-14.1c0-.7.6-1.2 1.3-1.2.7 0 1.2.6 1.2 1.3l-.7 14.1c-.1.7-.6 1.2-1.3 1.2zM107.9 52.3c-.6 0-1.1-.4-1.2-1-.1-.7.3-1.3 1-1.4l14.1-2.5c.7-.1 1.3.3 1.4 1 .1.7-.3 1.3-1 1.4l-14.1 2.5h-.2z"/>
      <path d="M60.1 97.5l.7-.8-.9-.7c-7.5-5-12.5-13.6-12.5-23.5C47.4 56.7 60.1 44 75.9 44s28.5 12.7 28.5 28.3c0 15.8-12.7 28.5-28.5 28.5-4.2 0-8.3-.9-11.8-2.6l-.4-.2-.5.2-6.4 3.3 3.3-4z" fill="#fff" stroke="#263238" stroke-width="2" stroke-linejoin="round"/>
      <path class="st4" d="M66.4 82.3c-1.6 2.5-1.6 3.6 0 5 .7.7 1.4.7 2.3.7h9.8c9.8 0 17.2-10.7 12-20.7-2.5-4.8-5.7-9.3-8.6-13.9-1.6-2.7-3.6-3-5.4-1.1-.9.9-.7 1.8-.5 3 .5 3 2 5.7 2 8.9"/>
      <path class="st5" d="M66.4 82.3c-1.6 2.5-1.6 3.6 0 5 .7.7 1.4.7 2.3.7h9.8c9.8 0 17.2-10.7 12-20.7-2.5-4.8-5.7-9.3-8.6-13.9-1.6-2.7-3.6-3-5.4-1.1-.9.9-.7 1.8-.5 3 .5 3 2 5.7 2 8.9"/>
      <path class="st5" d="M78.4 64.6H67.1c-1.6 0-2.5.9-3.2 2-.7 1.1 0 2 .5 3 .2.7 1.1.9 2 .9h5.2M65.5 70.7c-2 2.5-1.8 3-.2 5 .5.7 1.1.7 1.6.7h5M65.9 76.6c-.7 1.1-1.8 2-.9 3.9 1.1 2.5 4.8 1.6 6.8 1.6"/>
      <g>
        <path class="st4" d="M25.3 42.6c-11.6 0-21.1-9.5-21.1-21.1C4.2 10 13.7.6 25.3.6S46.4 10 46.4 21.7c0 7-3.5 13.4-9.2 17.4l1.5 1.8c.3.4.3.9 0 1.3-.2.2-.5.4-.8.4-.2 0-.3 0-.5-.1L34 40.7c-2.5 1.2-5.5 1.9-8.7 1.9z"/>
        <path class="st2" d="M25.3 1.6c11.1 0 20.1 9 20.1 20.1 0 7-3.5 13-8.8 16.5l-.9.6.7.8 1.5 1.8-3.3-1.7-.5-.2-.5.2c-2.4 1.2-5.4 1.8-8.3 1.8-11.1 0-20.1-9-20.1-20.1 0-10.8 9-19.8 20.1-19.8m0-2C13.1-.4 3.2 9.4 3.2 21.5c0 12.2 9.9 22.1 22.1 22.1 3.1 0 6.2-.6 8.7-1.8l2.9 1.5c.3.1.6.2.9.2.6 0 1.2-.3 1.6-.7.6-.7.6-1.8 0-2.5l-.8-1c5.5-4.2 8.8-10.6 8.8-17.6C47.4 9.5 37.5-.4 25.3-.4z"/>
      </g>
      <path d="M25 14.6c1.4-1.4 2.8-2.7 4.7-3 2.7-.6 5.1.5 6.8 2.6 1.6 2.4 1.7 4.9.3 7.2-2.7 4.3-6.3 7.7-9.8 11.4-4.2-3-8.6-5.4-12.1-8.7-1.8-1.9-2.4-5.4-1.4-7.5 1.7-3.1 4.6-4.3 7.7-3.5 1.5.1 2.4 1.1 3.8 1.5z" fill="#ff5783"/>
    </g>
  </switch>
</svg>
